Coordinates
version=1
nRows=27
nColumns=12
inDegrees=yes

Units are S.I. units (second, meters, Newtons, ...)
Angles are in degrees

endheader
time	SC_y	SC_z	SC_x	AC_y	AC_z	AC_x	GH_y	GH_z	GH_yy	EL_x	PS_y
       0.0              -30.78          23.33          46.26          32.63          9.589         -11.23          118.3          31.09         -109.0          41.58          20.08
   0.04477              -30.77          23.33          46.26          32.63          9.589         -11.22          118.3          31.09         -109.0          41.57          20.09
   0.08954              -30.77          23.33          46.27          32.64          9.589         -11.22          118.3          31.09         -109.0          41.57           20.1
    0.1343              -30.77          23.32          46.27          32.64          9.588         -11.22          118.2          31.08         -109.0          41.56          20.11
    0.1791              -30.76          23.32          46.27          32.65          9.588         -11.21          118.2          31.08         -109.0          41.55          20.12
    0.2239              -30.76          23.32          46.27          32.66          9.587         -11.21          118.2          31.07         -109.0          41.55          20.13
    0.2686              -30.76          23.32          46.28          32.66          9.587         -11.21          118.2          31.07         -108.9          41.54          20.15
    0.3134              -30.75          23.32          46.28          32.67          9.586          -11.2          118.2          31.06         -108.9          41.53          20.16
    0.3582              -30.75          23.31          46.28          32.68          9.585          -11.2          118.1          31.06         -108.9          41.53          20.17
     0.403              -30.74          23.31          46.28          32.69          9.585         -11.19          118.1          31.05         -108.9          41.52          20.19
    0.4477              -30.74          23.31          46.29           32.7          9.584         -11.19          118.1          31.05         -108.9          41.51          20.21
    0.4925              -30.73          23.31          46.29          32.71          9.583         -11.18          118.1          31.04         -108.9           41.5          20.22
    0.5373              -30.73           23.3          46.29          32.72          9.582         -11.18          118.0          31.03         -108.9          41.49          20.24
     0.582              -30.72           23.3           46.3          32.73          9.581         -11.17          118.0          31.03         -108.8          41.48          20.26
    0.6268              -30.72           23.3           46.3          32.74           9.58         -11.17          118.0          31.02         -108.8          41.47          20.29
    0.6716              -30.71          23.29          46.31          32.76          9.579         -11.16          117.9          31.01         -108.8          41.45          20.31
    0.7164               -30.7          23.29          46.31          32.77          9.578         -11.15          117.9           31.0         -108.8          41.44          20.34
    0.7611              -30.69          23.28          46.32          32.79          9.577         -11.14          117.8          30.99         -108.8          41.42          20.37
    0.8059              -30.68          23.28          46.32           32.8          9.576         -11.13          117.8          30.98         -108.7          41.41           20.4
    0.8507              -30.67          23.27          46.33          32.82          9.574         -11.12          117.7          30.96         -108.7          41.39          20.43
    0.8954              -30.66          23.27          46.34          32.85          9.572         -11.11          117.7          30.95         -108.7          41.37          20.47
    0.9402              -30.65          23.26          46.34          32.87          9.571          -11.1          117.6          30.94         -108.6          41.34          20.51
     0.985              -30.64          23.25          46.35          32.89          9.569         -11.09          117.5          30.92         -108.6          41.32          20.56
      1.03              -30.62          23.25          46.36          32.92          9.566         -11.07          117.4           30.9         -108.5          41.29          20.61
     1.075               -30.6          23.24          46.37          32.95          9.564         -11.05          117.4          30.88         -108.5          41.26          20.67
     1.119              -30.59          23.23          46.39          32.99          9.561         -11.04          117.3          30.86         -108.4          41.23          20.73
     1.164              -30.56          23.22           46.4          33.03          9.558         -11.01          117.1          30.83         -108.4          41.19           20.8
